<?xml version="1.0" standalone="no"?>
<!DOCTYPE svg PUBLIC "-//W3C//DTD SVG 20010904//EN"
 "http://www.w3.org/TR/2001/REC-SVG-20010904/DTD/svg10.dtd">
<svg version="1.0" xmlns="http://www.w3.org/2000/svg"
 width="500.000000pt" height="500.000000pt" viewBox="0 0 500.000000 500.000000"
 preserveAspectRatio="xMidYMid meet">

<g transform="translate(0.000000,500.000000) scale(0.100000,-0.100000)"
fill="#000000" stroke="none">
<path d="M3405 4972 c-6 -5 -26 -15 -45 -23 -39 -15 -90 -46 -133 -81 -28 -23
-101 -32 -169 -21 -36 6 -35 17 3 60 16 19 28 37 25 40 -9 9 -52 -6 -91 -33
-35 -23 -43 -25 -76 -15 -52 16 -137 14 -198 -5 -52 -15 -131 -75 -131 -99 0
-28 -25 -35 -76 -21 -70 20 -150 24 -299 14 -119 -7 -132 -6 -155 11 -57 41
-195 100 -207 87 -3 -3 17 -26 46 -52 67 -60 80 -83 56 -100 -21 -15 -42 -7
-91 35 -49 44 -193 108 -268 122 -96 16 -164 7 -254 -36 l-76 -36 -18 23 c-10
13 -20 31 -24 41 -13 40 -20 12 -16 -61 l4 -79 -38 -37 c-53 -51 -122 -70
-238 -64 -109 6 -160 28 -225 97 -50 53 -50 41 0 -66 35 -73 91 -130 137 -139
42 -8 41 -24 -7 -60 -59 -43 -75 -77 -76 -159 -2 -79 -7 -95 -35 -95 -29 0
-177 -66 -214 -97 -19 -15 -45 -45 -58 -67 -34 -61 -32 -213 5 -351 32 -117
34 -183 7 -285 -16 -66 -25 -80 -65 -117 -25 -23 -63 -47 -83 -53 -47 -13
-129 -13 -137 0 -3 6 -13 10 -22 10 -9 0 -27 10 -40 22 -13 12 -23 17 -23 12
0 -8 23 -25 91 -67 34 -20 166 -65 204 -69 l30 -3 5 -81 c5 -68 10 -87 33
-117 15 -20 27 -41 27 -47 0 -6 -19 -43 -42 -83 -77 -135 -87 -157 -94 -204
-7 -57 18 -141 75 -248 20 -38 52 -110 70 -160 19 -49 38 -95 43 -102 6 -8 -2
-39 -27 -92 -110 -245 -148 -440 -111 -579 30 -112 69 -138 193 -128 l83 6 20
-32 c49 -81 35 -170 -53 -338 -58 -108 -61 -118 -59 -178 4 -133 82 -213 247
-252 50 -12 173 -15 183 -5 3 3 -9 18 -27 33 -52 44 -68 160 -32 238 31 69 98
110 211 131 113 21 105 22 103 -17 -1 -19 -4 -80 -5 -136 l-3 -101 -42 -54
c-23 -30 -109 -123 -192 -206 -82 -84 -169 -179 -193 -210 -66 -88 -121 -174
-114 -180 11 -12 36 8 49 39 36 84 213 285 389 440 54 47 83 82 169 201 60 83
120 161 144 187 84 89 143 183 197 314 16 39 33 73 38 76 5 3 42 3 82 -1 88
-7 135 4 73 17 -22 5 -70 9 -108 9 -58 0 -68 3 -73 20 -4 11 -22 36 -41 55
-19 19 -71 85 -116 145 -44 61 -96 127 -114 148 -31 35 -34 43 -28 79 4 23 13
55 20 73 8 17 15 73 16 125 2 101 15 159 37 168 14 5 33 -18 39 -48 2 -8 6
-55 8 -105 5 -94 -1 -149 -15 -140 -18 11 -19 -14 -2 -47 35 -73 90 -97 259
-118 46 -5 95 -16 110 -24 44 -22 130 -116 160 -173 31 -59 49 -69 39 -22 -5
27 -4 30 12 24 9 -5 59 -20 109 -34 89 -25 93 -27 93 -54 0 -35 -39 -127 -54
-128 -25 -1 -226 -276 -271 -371 -9 -18 -24 -49 -35 -68 -10 -19 -40 -84 -65
-145 -26 -60 -62 -143 -81 -182 -19 -40 -34 -77 -34 -83 0 -5 -4 -10 -10 -10
-5 0 -10 -4 -10 -9 0 -5 -19 -42 -43 -83 -23 -40 -49 -86 -57 -103 -8 -16 -18
-32 -22 -35 -9 -7 -88 -124 -88 -131 0 -3 299 -5 665 -5 571 0 665 2 665 14 0
8 -13 36 -28 61 l-29 46 41 -3 c53 -5 39 10 -31 33 -63 20 -87 47 -108 123 -8
31 -20 65 -25 74 -6 10 -10 42 -10 72 0 49 3 57 34 84 29 25 46 31 108 37 85
9 114 21 146 64 27 37 35 38 62 9 50 -54 1 -132 -110 -172 -92 -34 -96 -60 -4
-31 18 6 20 3 16 -23 -3 -22 3 -34 25 -53 20 -17 29 -35 30 -59 2 -38 24 -60
61 -60 27 0 138 46 164 67 9 8 38 17 64 21 26 4 49 13 52 20 6 19 -78 14 -113
-8 -50 -31 -136 -70 -155 -70 -62 0 -69 48 -12 84 20 13 50 38 67 55 39 42
162 101 218 106 43 3 44 2 65 -40 23 -48 18 -65 -31 -119 -15 -16 -52 -66 -81
-111 -65 -99 -87 -117 -161 -135 -52 -12 -63 -12 -107 4 -57 20 -74 13 -39
-15 30 -25 89 -28 169 -11 30 7 42 6 42 -2 0 -6 9 -22 19 -35 l18 -24 352 -1
351 -1 0 40 c0 58 25 155 60 231 34 76 36 90 15 159 -9 30 -13 70 -10 100 2
27 9 97 15 155 6 58 7 152 4 209 l-7 103 34 -7 c60 -13 97 -35 126 -78 26 -39
28 -49 28 -134 l0 -92 -39 -39 -38 -40 53 -4 c63 -4 178 14 231 36 94 40 149
123 151 228 2 58 -2 71 -54 173 -77 149 -93 204 -78 273 6 29 21 64 33 79 22
26 23 26 89 13 158 -30 214 50 204 290 -3 69 -11 141 -17 160 -39 114 -85 231
-106 270 -24 45 -30 71 -18 83 3 3 19 43 35 89 16 46 51 126 78 178 82 159 88
251 25 355 -18 31 -39 72 -46 91 -12 34 -11 37 12 55 82 65 134 118 154 158
22 44 40 101 33 101 -3 0 -21 -13 -41 -29 -22 -18 -60 -35 -92 -41 -49 -10
-59 -9 -97 9 -47 24 -81 68 -91 123 -7 37 -5 40 67 110 40 40 78 88 85 106 12
36 3 43 -16 11 -14 -22 -69 -49 -102 -49 -29 0 -26 31 14 158 64 202 84 277
91 342 9 88 -13 165 -62 215 -37 39 -174 110 -232 121 -17 4 -34 11 -38 17 -3
6 -7 45 -8 88 -1 76 -2 79 -43 128 l-42 50 22 12 c30 16 77 70 78 90 0 8 4 19
9 25 14 14 31 84 20 84 -5 0 -28 -17 -52 -39 -59 -54 -99 -72 -175 -77 -108
-8 -133 5 -247 129 -132 146 -136 147 -333 147 -87 0 -162 -4 -167 -8z m-491
-91 c3 -5 -6 -21 -19 -35 -14 -15 -25 -31 -25 -36 0 -12 -53 -40 -75 -40 -36
0 4 62 65 99 39 23 46 25 54 12z m-202 -1458 l61 -29 -94 -20 c-52 -12 -95
-20 -95 -20 -1 1 -4 38 -7 83 l-5 83 40 -34 c22 -19 67 -47 100 -63z m256 -79
c-21 -77 10 -148 92 -213 36 -29 46 -41 33 -42 -180 -5 -246 -9 -263 -14 -12
-4 -61 -13 -108 -20 -93 -14 -254 -65 -312 -98 -19 -11 -47 -26 -61 -34 -15
-7 -38 -28 -52 -46 -19 -26 -40 -37 -89 -51 -34 -10 -97 -28 -138 -40 l-75
-23 -40 20 c-31 15 -60 20 -125 20 -81 0 -202 -16 -245 -33 -11 -4 -54 -18
-95 -30 -41 -13 -91 -31 -110 -41 -37 -20 -50 -23 -50 -11 1 22 25 35 98 52
206 49 348 179 371 339 l6 46 60 8 c113 15 184 6 250 -33 45 -27 65 -47 83
-83 25 -47 25 -47 7 -95 -10 -26 -24 -55 -32 -64 -29 -33 -8 -39 33 -10 99 72
177 210 197 348 14 95 21 99 32 19 13 -99 16 -107 31 -94 19 16 69 106 83 151
11 32 17 37 59 47 121 28 291 58 334 60 l36 1 -10 -36z m-2400 -266 c1 -85
-11 -128 -35 -128 -7 0 -14 12 -15 28 0 15 -2 40 -3 56 -3 39 26 126 41 126 9
0 12 -24 12 -82z m2528 -68 c24 -17 44 -37 44 -45 0 -19 -20 -19 -45 -1 -72
49 -297 55 -383 10 -15 -8 -31 -14 -35 -14 -12 0 -68 -42 -94 -70 -53 -57 -86
-158 -65 -196 10 -18 11 -18 18 1 22 63 48 109 80 141 20 19 38 34 40 32 2 -2
-1 -21 -7 -42 -13 -47 -6 -125 15 -163 8 -15 18 -36 22 -46 7 -20 10 -20 93
12 29 11 79 23 110 26 31 3 63 7 71 8 8 1 50 -2 93 -7 70 -7 77 -10 77 -30 0
-61 -117 -166 -220 -195 -25 -8 -67 -20 -95 -29 -28 -9 -81 -15 -121 -14 -62
1 -81 6 -140 38 -165 88 -241 181 -251 311 -5 56 -3 67 21 103 28 42 87 78
185 111 30 11 56 19 57 19 2 0 -8 -16 -21 -36 -38 -56 -30 -64 15 -17 22 23
50 45 63 49 12 3 30 13 40 22 16 14 53 24 147 38 19 3 36 6 37 8 2 2 49 4 104
5 96 1 102 0 145 -29z m148 -16 c9 -3 16 -12 16 -19 0 -7 6 -18 14 -24 25 -21
28 -60 8 -86 -19 -24 -20 -24 -37 -5 -13 15 -19 38 -19 80 -1 33 -1 60 0 60 1
0 9 -3 18 -6z m-99 -130 c26 -17 32 -58 15 -99 -7 -17 -9 -15 -9 12 -1 18 -10
48 -21 68 -22 39 -20 42 15 19z m-893 -147 c-2 -4 -13 -5 -25 -2 -26 7 -97
-16 -137 -45 l-28 -20 -13 33 c-7 17 -17 35 -23 39 -5 4 3 9 20 13 16 3 58 15
94 25 102 30 104 30 111 -5 3 -16 3 -33 1 -38z m971 17 c-4 -21 -15 -40 -22
-42 -10 -3 -12 0 -7 14 10 24 14 44 15 69 1 14 4 16 12 8 8 -8 9 -23 2 -49z
m-142 17 c20 -16 21 -21 10 -35 -17 -20 -55 -21 -75 0 -22 21 -20 33 7 44 31
12 32 12 58 -9z m-1188 -22 c43 -36 62 -31 27 6 -28 30 -17 32 26 6 82 -50
114 -190 74 -322 -33 -106 -102 -212 -162 -249 -77 -47 -248 -77 -316 -56 -28
9 -65 87 -57 118 5 18 -1 33 -18 54 -13 16 -27 43 -31 60 -6 28 -4 32 31 46
21 9 46 19 56 22 12 4 17 14 15 33 -2 16 -7 31 -11 34 -4 3 -5 29 -1 57 5 40
14 59 43 88 20 20 47 42 61 49 l25 13 1 -92 c1 -79 5 -98 27 -138 l26 -46 -32
-26 -32 -25 80 26 c56 18 107 26 168 28 49 2 91 6 94 9 10 9 5 70 -8 102 -7
16 -13 44 -14 62 -2 43 -62 105 -132 139 -29 14 -53 27 -53 29 0 2 17 4 38 4
27 0 48 -8 75 -31z m1264 -11 c-3 -8 -6 -5 -6 6 -1 11 2 17 5 13 3 -3 4 -12 1
-19z m-1614 -20 c-13 -6 -23 -14 -23 -18 0 -4 -12 -25 -27 -46 -22 -34 -29
-59 -32 -121 -2 -29 -72 21 -97 69 -22 42 -17 54 29 73 79 34 207 71 150 43z
m724 -40 c6 -7 13 -25 17 -41 4 -15 15 -36 26 -47 11 -11 20 -24 20 -29 0 -17
108 -108 167 -141 118 -67 246 -85 337 -46 54 22 58 21 50 -19 -4 -21 -2 -35
4 -35 12 0 22 24 22 54 0 24 31 46 93 65 20 7 37 16 37 21 0 4 13 13 29 20 45
18 79 66 118 169 7 18 9 -5 10 -80 1 -116 6 -174 24 -237 6 -23 9 -45 6 -48
-10 -10 -81 -24 -124 -24 -117 0 -11 -62 111 -64 116 -2 114 -18 -15 -126
-106 -88 -175 -165 -212 -234 -19 -35 -22 -57 -22 -154 0 -104 -1 -113 -20
-118 -11 -3 -29 -9 -40 -14 -39 -17 -110 -40 -135 -44 -14 -3 -25 -5 -25 -6 0
-1 -11 -3 -25 -6 -14 -2 -36 -8 -50 -13 -14 -5 -50 -9 -80 -9 -34 0 -74 -9
-104 -23 -54 -24 -164 -31 -188 -12 -7 6 -47 18 -88 27 -41 10 -79 21 -85 25
-5 5 -26 11 -46 15 -26 4 -55 26 -110 79 -41 39 -124 117 -184 172 -173 159
-187 174 -180 185 3 5 -2 10 -13 10 -11 0 -26 7 -33 16 -12 15 -10 15 25 0 21
-9 48 -16 60 -16 12 0 27 -5 33 -11 8 -8 17 -8 33 1 12 7 35 10 51 8 16 -3 29
-1 29 4 0 4 11 10 25 14 36 9 53 32 29 40 -11 3 -26 9 -35 14 -9 5 -20 5 -25
0 -5 -5 -21 -6 -36 -3 -20 4 -25 10 -23 29 2 19 0 22 -11 13 -8 -6 -11 -15 -8
-20 9 -16 -20 -9 -65 15 l-45 23 80 7 c129 12 179 32 248 101 84 83 136 187
152 300 5 36 7 96 4 110 -6 25 4 37 53 65 55 31 117 40 134 18z m-339 -150
c16 -16 -3 -38 -33 -38 -26 0 -50 24 -40 40 8 14 58 13 73 -2z m-484 -266 c16
-78 15 -85 -8 -103 -31 -24 -56 -124 -55 -217 0 -38 -5 -80 -11 -92 l-12 -22
-15 22 c-19 27 -13 119 10 171 18 40 33 112 41 191 3 31 9 63 12 72 8 22 32 8
38 -22z m2176 -611 c0 -9 -16 -31 -35 -48 -33 -30 -45 -65 -26 -77 5 -4 44 -1
88 5 95 13 182 53 241 110 41 38 45 40 60 25 14 -13 14 -20 4 -34 -6 -9 -17
-28 -23 -42 -8 -20 -46 -71 -109 -147 -21 -26 -111 -25 -214 1 -54 14 -99 26
-101 26 -1 0 -10 20 -19 45 -23 59 -18 87 19 104 17 7 39 21 50 31 37 33 65
33 65 1z m-2276 -48 c2 -16 8 -58 11 -95 6 -58 12 -74 45 -116 37 -47 39 -52
33 -101 -7 -57 -31 -98 -54 -89 -8 3 -30 36 -49 73 -21 41 -50 80 -75 101 -45
37 -110 159 -100 187 4 8 30 19 65 26 32 6 64 18 70 26 20 25 48 18 54 -12z
m1963 -126 c-121 -222 -168 -340 -191 -483 -8 -49 -17 -96 -21 -105 -7 -19 10
-35 20 -19 11 18 27 11 20 -10 -9 -29 2 -25 59 22 48 39 93 89 163 178 51 65
218 226 293 283 73 54 119 71 148 53 25 -15 9 -38 -105 -153 -122 -122 -228
-239 -298 -327 -75 -95 -91 -109 -114 -96 -16 8 -27 8 -43 -1 -23 -12 -117
-109 -118 -120 0 -4 -16 -24 -35 -45 -19 -22 -35 -42 -35 -46 0 -20 -20 -5
-20 15 0 33 -35 67 -70 67 -21 0 -36 -9 -56 -35 -15 -19 -38 -38 -53 -41 -14
-3 -34 -8 -43 -11 -13 -3 -18 2 -18 19 0 34 40 144 82 223 20 39 82 160 138
269 138 270 212 385 273 418 49 28 58 7 24 -55z m-817 -136 c0 -15 -30 -41
-46 -41 -21 0 -17 15 9 33 26 18 37 21 37 8z m-80 -45 c0 -7 -11 -21 -24 -30
-14 -9 -26 -27 -28 -43 -2 -21 -10 -29 -33 -33 -42 -9 -71 -26 -119 -70 -50
-46 -96 -62 -96 -34 0 21 26 66 62 106 23 26 199 118 226 118 6 0 12 -6 12
-14z m881 -511 c40 -21 50 -53 47 -152 l-3 -83 -43 0 c-23 0 -59 -7 -80 -15
l-37 -15 30 26 c17 14 41 35 53 46 13 11 22 22 19 24 -13 13 -66 -25 -161
-118 -113 -109 -145 -130 -174 -112 -35 23 -24 48 59 134 45 47 105 114 134
150 62 77 110 130 120 130 3 0 19 -7 36 -15z m-2501 -55 c0 -4 18 -34 40 -66
41 -61 47 -74 30 -74 -35 0 -116 111 -104 143 5 15 34 13 34 -3z"/>
<path d="M2709 2539 c13 -11 27 -17 30 -13 7 7 -28 34 -43 34 -6 -1 0 -10 13
-21z"/>
<path d="M1950 2365 c-7 -8 -8 -15 -2 -15 5 0 15 7 22 15 7 8 8 15 2 15 -5 0
-15 -7 -22 -15z"/>
<path d="M3096 2408 c-11 -35 -14 -78 -7 -78 12 0 31 56 23 65 -4 3 0 10 8 15
13 8 12 10 -3 10 -10 0 -19 -6 -21 -12z"/>
<path d="M2995 2384 c-4 -10 -11 -27 -16 -36 -12 -24 -11 -31 3 -22 8 5 9 2 5
-9 -3 -10 -2 -17 3 -17 6 0 10 9 10 21 0 11 5 30 11 41 8 14 8 23 0 31 -7 7
-12 5 -16 -9z"/>
<path d="M2160 2239 c0 -17 27 -45 35 -37 3 3 -3 16 -14 29 -16 19 -20 20 -21
8z"/>
<path d="M2395 2170 c-8 -26 -80 -75 -130 -89 -22 -6 -62 -11 -88 -11 -35 0
-47 -4 -45 -12 11 -34 157 -9 228 39 35 22 70 67 70 88 0 15 -29 2 -35 -15z"/>
<path d="M1790 2040 c0 -5 5 -10 11 -10 5 0 7 5 4 10 -3 6 -8 10 -11 10 -2 0
-4 -4 -4 -10z"/>
</g>
</svg>
